<svg 
 xmlns="http://www.w3.org/2000/svg"
 xmlns:xlink="http://www.w3.org/1999/xlink"
 width="1927px" height="178px">
<path fill-rule="evenodd"  fill="rgb(255, 255, 255)"
 d="M1925.663,137.668 C1925.663,115.175 1907.378,96.940 1884.826,96.940 C1871.822,96.940 1860.246,103.010 1852.767,112.456 C1846.899,97.139 1832.035,86.257 1814.617,86.257 C1809.525,86.257 1804.654,87.194 1800.159,88.893 C1790.201,66.754 1767.923,51.322 1742.019,51.322 C1726.785,51.322 1712.806,56.663 1701.844,65.559 C1693.819,57.234 1682.549,52.045 1670.055,52.045 C1648.749,52.045 1630.970,67.117 1626.851,87.153 C1622.116,84.080 1616.474,82.277 1610.403,82.277 C1604.792,82.277 1599.556,83.830 1595.053,86.489 C1586.656,65.415 1566.038,50.509 1541.919,50.509 C1520.872,50.509 1502.494,61.860 1492.570,78.751 C1486.682,67.788 1475.369,60.159 1462.207,59.436 C1454.087,25.359 1423.391,0.004 1386.740,0.004 C1353.814,0.004 1325.696,20.472 1314.428,49.339 C1308.886,47.465 1302.953,46.434 1296.776,46.434 C1277.333,46.434 1260.256,56.509 1250.478,71.702 C1238.803,47.439 1213.942,30.687 1185.157,30.687 C1150.983,30.687 1122.354,54.306 1114.742,86.065 C1106.042,65.644 1085.749,51.322 1062.102,51.322 C1030.557,51.322 1004.979,76.804 1004.932,108.257 C999.746,105.879 993.980,104.543 987.899,104.543 C980.520,104.543 973.606,106.504 967.633,109.917 C960.178,101.936 949.553,96.940 937.754,96.940 C924.750,96.940 913.174,103.010 905.696,112.456 C899.827,97.139 884.963,86.257 867.545,86.257 C862.453,86.257 857.582,87.194 853.087,88.893 C843.130,66.754 820.851,51.322 794.947,51.322 C779.713,51.322 765.734,56.663 754.772,65.559 C746.747,57.234 735.477,52.045 722.983,52.045 C701.676,52.045 683.898,67.117 679.779,87.153 C675.043,84.080 669.403,82.277 663.332,82.277 C657.719,82.277 652.484,83.830 647.981,86.489 C639.584,65.415 618.967,50.509 594.847,50.509 C573.800,50.509 555.422,61.860 545.499,78.751 C539.609,67.788 528.296,60.159 515.136,59.436 C507.015,25.359 476.318,0.004 439.667,0.004 C406.742,0.004 378.623,20.472 367.357,49.339 C361.813,47.465 355.881,46.434 349.705,46.434 C330.261,46.434 313.184,56.509 303.406,71.702 C291.730,47.439 266.870,30.687 238.085,30.687 C203.911,30.687 175.282,54.306 167.670,86.065 C158.970,65.644 138.678,51.322 115.029,51.322 C83.727,51.322 58.316,76.417 57.879,107.533 L56.131,107.518 C51.403,105.608 46.241,104.543 40.826,104.543 C18.273,104.543 -0.010,122.777 -0.010,145.272 L1.327,177.998 L1927.000,177.998 L1925.663,138.575 L1925.639,138.574 C1925.647,138.272 1925.663,137.972 1925.663,137.668 Z"/>
</svg>