<svg 
 xmlns="http://www.w3.org/2000/svg"
 xmlns:xlink="http://www.w3.org/1999/xlink"
 width="1920px" height="187px">
<defs>

<linearGradient id="PSgrad_0" x1="0%" x2="0%" y1="100%" y2="0%">
  <stop offset="0%" stop-color="rgb(252, 252, 252)" stop-opacity="0.25098" />
  <stop offset="100%" stop-color="rgb(232, 241, 242)" stop-opacity="0.6" />
</linearGradient>

</defs>
<path fill-rule="evenodd"  fill-opacity="0" fill="rgb(255, 255, 255)"
 d="M1919.576,94.540 L1919.576,28.930 C1914.576,34.516 1910.449,40.902 1907.417,47.875 C1897.479,33.073 1880.590,23.330 1861.419,23.330 C1837.521,23.330 1817.161,38.471 1809.407,59.685 C1802.122,43.990 1786.233,33.100 1767.791,33.100 C1753.901,33.100 1741.461,39.286 1733.049,49.042 C1723.788,20.877 1697.288,0.535 1666.022,0.535 C1627.054,0.535 1595.461,32.124 1595.461,71.093 C1595.461,76.924 1596.183,82.586 1597.517,88.006 C1591.028,83.507 1583.156,80.863 1574.661,80.863 C1567.514,80.863 1560.810,82.738 1554.999,86.009 C1555.072,84.844 1555.121,83.674 1555.121,82.490 C1555.121,51.914 1530.335,27.128 1499.758,27.128 C1475.376,27.128 1454.690,42.896 1447.304,64.786 C1441.940,31.137 1412.795,5.419 1377.636,5.419 C1348.656,5.419 1323.770,22.894 1312.908,47.875 C1302.970,33.073 1286.081,23.330 1266.913,23.330 C1243.014,23.330 1222.652,38.471 1214.898,59.685 C1207.613,43.990 1191.724,33.100 1173.282,33.100 C1159.392,33.100 1146.952,39.286 1138.542,49.042 C1129.279,20.877 1102.779,0.535 1071.515,0.535 C1032.544,0.535 1000.955,32.124 1000.955,71.093 C1000.955,74.706 1001.230,78.254 1001.753,81.720 C999.084,81.161 996.319,80.863 993.484,80.863 C986.337,80.863 979.633,82.738 973.822,86.009 C973.895,84.844 973.944,83.674 973.944,82.490 C973.944,51.914 949.156,27.128 918.580,27.128 C894.198,27.128 873.513,42.896 866.126,64.786 C860.762,31.137 831.617,5.419 796.458,5.419 C767.478,5.419 742.593,22.894 731.731,47.875 C721.793,33.073 704.903,23.330 685.734,23.330 C661.836,23.330 641.474,38.471 633.721,59.685 C626.436,43.990 610.546,33.100 592.105,33.100 C578.215,33.100 565.775,39.286 557.364,49.042 C548.102,20.877 521.602,0.535 490.337,0.535 C451.367,0.535 419.776,32.124 419.776,71.093 C419.776,76.925 420.497,82.586 421.832,88.007 C415.343,83.508 407.470,80.863 398.976,80.863 C391.829,80.863 385.125,82.738 379.314,86.009 C379.387,84.844 379.436,83.674 379.436,82.490 C379.436,51.914 354.649,27.128 324.072,27.128 C299.690,27.128 279.005,42.896 271.618,64.786 C266.254,31.137 237.109,5.419 201.950,5.419 C172.971,5.419 148.085,22.894 137.223,47.875 C127.285,33.073 110.396,23.330 91.226,23.330 C67.328,23.330 46.967,38.471 39.213,59.685 C32.246,44.676 17.403,34.088 -0.008,33.189 L-0.008,124.738 C0.025,124.736 0.057,124.731 0.090,124.729 L0.090,186.521 L1919.674,186.521 L1919.674,94.540 L1919.576,94.540 Z"/>
<path fill="url(#PSgrad_0)"
 d="M1919.576,94.540 L1919.576,28.930 C1914.576,34.516 1910.449,40.902 1907.417,47.875 C1897.479,33.073 1880.590,23.330 1861.419,23.330 C1837.521,23.330 1817.161,38.471 1809.407,59.685 C1802.122,43.990 1786.233,33.100 1767.791,33.100 C1753.901,33.100 1741.461,39.286 1733.049,49.042 C1723.788,20.877 1697.288,0.535 1666.022,0.535 C1627.054,0.535 1595.461,32.124 1595.461,71.093 C1595.461,76.924 1596.183,82.586 1597.517,88.006 C1591.028,83.507 1583.156,80.863 1574.661,80.863 C1567.514,80.863 1560.810,82.738 1554.999,86.009 C1555.072,84.844 1555.121,83.674 1555.121,82.490 C1555.121,51.914 1530.335,27.128 1499.758,27.128 C1475.376,27.128 1454.690,42.896 1447.304,64.786 C1441.940,31.137 1412.795,5.419 1377.636,5.419 C1348.656,5.419 1323.770,22.894 1312.908,47.875 C1302.970,33.073 1286.081,23.330 1266.913,23.330 C1243.014,23.330 1222.652,38.471 1214.898,59.685 C1207.613,43.990 1191.724,33.100 1173.282,33.100 C1159.392,33.100 1146.952,39.286 1138.542,49.042 C1129.279,20.877 1102.779,0.535 1071.515,0.535 C1032.544,0.535 1000.955,32.124 1000.955,71.093 C1000.955,74.706 1001.230,78.254 1001.753,81.720 C999.084,81.161 996.319,80.863 993.484,80.863 C986.337,80.863 979.633,82.738 973.822,86.009 C973.895,84.844 973.944,83.674 973.944,82.490 C973.944,51.914 949.156,27.128 918.580,27.128 C894.198,27.128 873.513,42.896 866.126,64.786 C860.762,31.137 831.617,5.419 796.458,5.419 C767.478,5.419 742.593,22.894 731.731,47.875 C721.793,33.073 704.903,23.330 685.734,23.330 C661.836,23.330 641.474,38.471 633.721,59.685 C626.436,43.990 610.546,33.100 592.105,33.100 C578.215,33.100 565.775,39.286 557.364,49.042 C548.102,20.877 521.602,0.535 490.337,0.535 C451.367,0.535 419.776,32.124 419.776,71.093 C419.776,76.925 420.497,82.586 421.832,88.007 C415.343,83.508 407.470,80.863 398.976,80.863 C391.829,80.863 385.125,82.738 379.314,86.009 C379.387,84.844 379.436,83.674 379.436,82.490 C379.436,51.914 354.649,27.128 324.072,27.128 C299.690,27.128 279.005,42.896 271.618,64.786 C266.254,31.137 237.109,5.419 201.950,5.419 C172.971,5.419 148.085,22.894 137.223,47.875 C127.285,33.073 110.396,23.330 91.226,23.330 C67.328,23.330 46.967,38.471 39.213,59.685 C32.246,44.676 17.403,34.088 -0.008,33.189 L-0.008,124.738 C0.025,124.736 0.057,124.731 0.090,124.729 L0.090,186.521 L1919.674,186.521 L1919.674,94.540 L1919.576,94.540 Z"/>
</svg>